<?xml version="1.0" encoding="UTF-8" standalone="no"?>
<svg
   xmlns:dc="http://purl.org/dc/elements/1.1/"
   xmlns:cc="http://creativecommons.org/ns#"
   xmlns:rdf="http://www.w3.org/1999/02/22-rdf-syntax-ns#"
   xmlns:svg="http://www.w3.org/2000/svg"
   xmlns="http://www.w3.org/2000/svg"
   xmlns:sodipodi="http://sodipodi.sourceforge.net/DTD/sodipodi-0.dtd"
   xmlns:inkscape="http://www.inkscape.org/namespaces/inkscape"
   viewBox="0 0 360.73749 84.849998"
   height="84.849998"
   width="360.73749"
   xml:space="preserve"
   version="1.1"
   id="svg2"
   sodipodi:docname="OpenInfra_Days_Korea_Horizontal-white.svg"
   inkscape:version="0.92.2 5c3e80d, 2017-08-06"><sodipodi:namedview
     pagecolor="#ffffff"
     bordercolor="#666666"
     borderopacity="1"
     objecttolerance="10"
     gridtolerance="10"
     guidetolerance="10"
     inkscape:pageopacity="0"
     inkscape:pageshadow="2"
     inkscape:window-width="1444"
     inkscape:window-height="759"
     id="namedview162"
     showgrid="false"
     inkscape:zoom="3.5926402"
     inkscape:cx="180.36874"
     inkscape:cy="42.424999"
     inkscape:window-x="0"
     inkscape:window-y="0"
     inkscape:window-maximized="0"
     inkscape:current-layer="g12" /><metadata
     id="metadata8"><rdf:RDF><cc:Work
         rdf:about=""><dc:format>image/svg+xml</dc:format><dc:type
           rdf:resource="http://purl.org/dc/dcmitype/StillImage" /><dc:title></dc:title></cc:Work></rdf:RDF></metadata><defs
     id="defs6" /><g
     transform="matrix(1.25,0,0,-1.25,0,84.85)"
     id="g10"><g
       transform="scale(0.1,0.1)"
       id="g12"><path
         id="path14"
         style="fill:#ffffff;fill-opacity:1;fill-rule:nonzero;stroke:none"
         d="m 1047,183.711 c 0,-29.481 14.49,-43.719 38.39,-43.719 41.44,0 58.21,61.766 58.21,94.559 0,29.492 -14.74,43.73 -38.38,43.73 -41.69,0 -58.22,-61.777 -58.22,-94.57 z m 59.49,113.125 c 41.69,0 70.92,-29.746 70.92,-73.465 0,-49.062 -36.86,-101.933 -93.29,-101.933 -41.69,0 -71.18,29.734 -71.18,73.464 0,49.063 36.86,101.934 93.55,101.934" /><path
         id="path16"
         style="fill:#ffffff;fill-opacity:1;fill-rule:nonzero;stroke:none"
         d="m 1243.02,162.102 c 0,-12.454 5.33,-21.094 16.52,-21.094 22.63,0 35.34,42.703 35.34,62.793 0,14.226 -4.58,21.601 -13.99,21.601 -20.33,0 -37.87,-40.929 -37.87,-63.3 z m -20.59,62.031 c -5.85,0 -10.43,-7.375 -18.56,-24.406 l -11.95,5.089 c 12.21,27.957 24.15,40.164 40.16,40.164 11.45,0 19.07,-8.386 19.07,-22.878 0,-1.778 -0.25,-4.075 -0.51,-6.36 l 2.04,-0.762 c 9.66,20.079 25.17,30.254 39.15,30.254 21.35,0 33.55,-17.539 33.55,-41.179 0,-40.93 -28.22,-78.809 -59.48,-78.809 -13.48,0 -24.15,6.863 -28.98,17.031 l -10.17,-37.882 23.89,0 -5.08,-18.8091 -70.42,0 5.09,18.8091 17.28,0 26.95,100.675 c 3.81,14.239 2.54,19.063 -2.03,19.063" /><path
         id="path18"
         style="fill:#ffffff;fill-opacity:1;fill-rule:nonzero;stroke:none"
         d="m 1378.28,185.234 c 35.33,3.821 48.3,17.551 48.3,33.301 0,7.121 -4.07,12.715 -11.7,12.715 -17.8,0 -31.27,-24.148 -36.6,-46.016 z m -2.29,-11.941 c -0.26,-2.031 -0.26,-4.074 -0.26,-5.852 0,-21.093 10.93,-27.703 23.64,-27.703 12.46,0 24.92,8.387 35.6,23.387 l 10.67,-7.625 c -12.96,-18.566 -28.73,-32.539 -55.67,-32.539 -26.19,0 -44.49,18.301 -44.49,46.258 0,39.152 33.81,76.015 73.72,76.015 21.86,0 34.06,-10.937 34.06,-26.445 0,-22.871 -23.89,-42.449 -77.27,-45.496" /><path
         id="path20"
         style="fill:#ffffff;fill-opacity:1;fill-rule:nonzero;stroke:none"
         d="m 1584.71,143.547 c 5.33,0 10.67,8.133 17.54,25.672 l 11.94,-3.809 c -10.17,-30.762 -24.4,-42.449 -38.89,-42.449 -13.73,0 -22.62,8.894 -22.62,23.641 0,25.421 16.77,50.586 16.77,67.871 0,5.851 -2.54,8.39 -6.86,8.39 -11.69,0 -33.56,-19.316 -53.9,-97.363 l -30.51,0 21.87,82.363 c 3.82,14.492 3.06,18.555 -1.52,18.555 -5.85,0 -12.46,-10.93 -19.83,-26.691 l -11.95,5.089 c 10.93,25.418 23.64,40.164 40.67,40.164 10.94,0 18.57,-7.878 18.57,-23.64 0,-7.375 -1.54,-16.524 -5.35,-28.223 l 1.78,-0.762 c 16.78,35.848 35.59,52.879 53.64,52.879 14.23,0 23.14,-11.191 23.14,-26.445 0,-21.601 -18.82,-54.141 -18.82,-69.648 0,-3.817 1.52,-5.594 4.33,-5.594" /><path
         id="path22"
         style="fill:#ffffff;fill-opacity:1;fill-rule:nonzero;stroke:none"
         d="m 1622.6,144.563 25.67,0 32.03,129.14 -25.93,0 4.83,19.07 83.64,0 -4.83,-19.07 -25.42,0 -32.29,-129.14 25.93,0 -4.57,-19.063 -83.39,0 4.33,19.063" /><path
         id="path24"
         style="fill:#ffffff;fill-opacity:1;fill-rule:nonzero;stroke:none"
         d="m 1851.15,143.547 c 5.33,0 10.68,8.133 17.54,25.672 l 11.94,-3.809 c -10.16,-30.762 -24.4,-42.449 -38.88,-42.449 -13.73,0 -22.63,8.894 -22.63,23.641 0,25.421 16.78,50.586 16.78,67.871 0,5.851 -2.54,8.39 -6.87,8.39 -11.69,0 -33.55,-19.316 -53.89,-97.363 l -30.5,0 21.85,82.363 c 3.82,14.492 3.06,18.555 -1.52,18.555 -5.85,0 -12.45,-10.93 -19.82,-26.691 l -11.96,5.089 c 10.94,25.418 23.65,40.164 40.68,40.164 10.93,0 18.56,-7.878 18.56,-23.64 0,-7.375 -1.53,-16.524 -5.34,-28.223 l 1.78,-0.762 c 16.77,35.848 35.58,52.879 53.64,52.879 14.23,0 23.13,-11.191 23.13,-26.445 0,-21.601 -18.81,-54.141 -18.81,-69.648 0,-3.817 1.52,-5.594 4.32,-5.594" /><path
         id="path26"
         style="fill:#ffffff;fill-opacity:1;fill-rule:nonzero;stroke:none"
         d="m 1859.3,100.336 c 0,9.402 6.61,18.043 16.77,18.043 8.39,0 12.97,-6.102 12.97,-12.957 0,-5.086 -1.77,-9.4142 -3.55,-11.1915 8.64,-0.2539 12.2,4.3242 18.81,36.3555 l 19.57,93.801 -23.65,0 4.08,15.508 22.62,0 c 8.9,41.179 31.26,62.031 60.25,62.031 21.86,0 32.03,-11.192 32.03,-23.137 0,-11.445 -7.63,-21.355 -18.3,-21.355 -8.64,0 -14.75,5.086 -14.75,13.984 0,5.34 2.54,11.941 7.12,15.762 -1.52,1.015 -4.07,1.523 -6.86,1.523 -17.8,0 -22.88,-14.492 -28.73,-42.453 l -1.27,-6.355 33.55,0 -4.06,-15.508 -32.79,0 -17.04,-80.84 c -9.65,-46.2618 -32.28,-61.2618 -53.64,-61.2618 -15.51,0 -23.13,8.3906 -23.13,18.0508" /><path
         id="path28"
         style="fill:#ffffff;fill-opacity:1;fill-rule:nonzero;stroke:none"
         d="m 2020.73,207.863 c 3.82,14.492 3.06,18.555 -1.52,18.555 -5.85,0 -12.45,-10.93 -19.83,-26.691 l -11.95,5.089 c 10.94,25.418 23.64,40.164 40.68,40.164 10.93,0 18.56,-7.878 18.56,-23.64 0,-7.375 -1.53,-16.27 -5.09,-27.461 l 2.03,-0.762 c 14.75,33.555 26.96,52.117 44.75,52.117 10.67,0 18.55,-7.371 18.55,-19.324 0,-12.707 -8.13,-22.871 -18.3,-22.871 -8.89,0 -15.76,5.84 -15.25,16.524 -7.37,-3.059 -25.67,-24.661 -43.99,-94.063 l -30.49,0 21.85,82.363" /><path
         id="path30"
         style="fill:#ffffff;fill-opacity:1;fill-rule:nonzero;stroke:none"
         d="m 2195.39,208.371 c 0,13.223 -4.83,20.34 -13.73,20.34 -22.62,0 -37.62,-42.195 -37.62,-62.793 0,-15 5.33,-22.625 14.75,-22.625 20.58,0 36.6,44.492 36.6,65.078 z m 19.57,-43.723 c -2.03,-6.609 -2.79,-11.187 -2.79,-14.492 0,-4.324 2.03,-6.609 5.85,-6.609 5.58,0 11.18,8.641 17.03,25.672 l 12.2,-3.809 c -9.92,-31.015 -23.65,-42.449 -39.14,-42.449 -11.96,0 -20.85,7.625 -20.85,22.363 0,1.785 0,3.055 0.25,5.594 l -1.78,0.762 c -9.66,-19.063 -24.15,-28.719 -38.64,-28.719 -21.87,0 -33.81,18.047 -33.81,40.418 0,25.93 10.42,49.062 24.15,62.531 11.94,12.207 25.42,19.324 39.66,19.324 14.24,0 22.36,-9.91 24.66,-21.355 l 5.08,19.57 28.98,0 -20.85,-78.801" /><path
         id="path32"
         style="fill:#ffffff;fill-opacity:1;fill-rule:nonzero;stroke:none"
         d="m 2374.37,144.309 c 23.13,0 38.64,4.832 51.86,18.054 15,14.992 25.93,46.262 25.93,70.664 0,26.953 -15.26,40.93 -46.02,40.93 l -13.72,0 -32.28,-129.648 14.23,0 z m -71.94,0.254 25.68,0 32.03,129.14 -25.93,0 4.82,19.07 67.38,0 c 52.87,0 80.83,-27.714 80.83,-65.332 0,-24.402 -9.92,-51.609 -29.49,-70.925 -19.07,-19.328 -47.79,-31.016 -86.18,-31.016 l -73.46,0 4.32,19.063" /><path
         id="path34"
         style="fill:#ffffff;fill-opacity:1;fill-rule:nonzero;stroke:none"
         d="m 2581.83,208.371 c 0,13.223 -4.84,20.34 -13.73,20.34 -22.62,0 -37.62,-42.195 -37.62,-62.793 0,-15 5.33,-22.625 14.73,-22.625 20.6,0 36.62,44.492 36.62,65.078 z m 19.57,-43.723 c -2.03,-6.609 -2.8,-11.187 -2.8,-14.492 0,-4.324 2.03,-6.609 5.85,-6.609 5.59,0 11.18,8.641 17.03,25.672 l 12.2,-3.809 c -9.91,-31.015 -23.64,-42.449 -39.14,-42.449 -11.95,0 -20.85,7.625 -20.85,22.363 0,1.785 0,3.055 0.26,5.594 l -1.78,0.762 c -9.66,-19.063 -24.15,-28.719 -38.64,-28.719 -21.87,0 -33.81,18.047 -33.81,40.418 0,25.93 10.42,49.062 24.15,62.531 11.94,12.207 25.42,19.324 39.66,19.324 14.22,0 22.37,-9.91 24.65,-21.355 l 5.08,19.57 28.99,0 -20.85,-78.801" /><path
         id="path36"
         style="fill:#ffffff;fill-opacity:1;fill-rule:nonzero;stroke:none"
         d="m 2701.84,223.117 c 0,-23.39 -14.75,-46.269 -14.75,-61.015 0,-6.348 2.8,-8.899 8.39,-8.899 13.48,0 31.52,15.258 50.85,90.246 l 28.46,0 -23.38,-98.125 c -10.93,-46.7693 -36.61,-63.0388 -68.38,-63.0388 -17.8,0 -39.15,4.8242 -39.15,23.6448 0,8.133 6.1,18.3 17.54,18.3 10.16,0 15.25,-7.121 14.74,-15.507 -0.25,-4.075 -2.54,-8.645 -5.09,-10.93 3.06,-1.0235 6.87,-1.7852 11.7,-1.7852 19.83,0 33.3,16.0152 41.95,51.3552 l 5.08,20.078 -1.53,0.762 c -14.73,-26.941 -30.5,-36.855 -45.24,-36.855 -16.78,0 -25.17,11.691 -25.17,26.437 0,19.57 16.27,47.031 16.27,61.524 0,3.3 -1.53,5.332 -3.82,5.332 -6.35,0 -12.45,-10.422 -19.31,-24.914 l -11.96,5.089 c 11.19,25.418 25.17,40.418 41.96,40.418 12.96,0 20.84,-8.64 20.84,-22.117" /><path
         id="path38"
         style="fill:#ffffff;fill-opacity:1;fill-rule:nonzero;stroke:none"
         d="m 2827.43,122.961 c -23.89,0 -48.55,10.164 -48.55,29.48 0,9.922 6.61,18.313 16.77,18.313 9.93,0 15,-7.121 15,-13.984 0,-6.102 -2.79,-11.192 -6.1,-13.985 4.33,-3.808 12.72,-6.613 21.87,-6.613 12.96,0 21.1,6.359 21.1,18.058 0,9.657 -10.43,14.481 -23.39,20.333 -15,6.863 -29.75,14.238 -29.75,31.523 0,26.687 25.68,39.148 47.8,39.148 25.93,0 43.72,-11.445 43.72,-26.699 0,-9.91 -6.6,-18.301 -16.27,-18.301 -9.41,0 -14.99,6.614 -14.99,13.985 0,5.09 2.54,10.422 6.09,13.476 -2.54,2.285 -9.91,4.825 -17.54,4.825 -12.19,0 -21.09,-6.356 -21.09,-17.032 0,-10.164 10.67,-15 25.42,-21.863 13.47,-6.094 27.96,-13.215 27.96,-30.75 0,-26.449 -22.88,-39.914 -48.05,-39.914" /><path
         id="path40"
         style="fill:#ffffff;fill-opacity:1;fill-rule:nonzero;stroke:none"
         d="m 1019.18,591.77 56.69,0 0,-87.239 60.78,87.239 65.2,0 -68.34,-93.848 70.54,-126.613 -66.14,0 -44.4,80.312 -17.64,-22.996 0,-57.316 -56.69,0 0,220.461" /><path
         id="path42"
         style="fill:#ffffff;fill-opacity:1;fill-rule:nonzero;stroke:none"
         d="m 1381.35,479.648 0,3.469 c 0,38.106 -18.26,61.406 -44.41,61.406 -26.14,0 -44.09,-22.988 -44.09,-61.093 l 0,-3.469 c 0,-38.106 18.27,-61.414 44.41,-61.414 26.45,0 44.09,22.996 44.09,61.101 z m -146.45,-0.632 0,4.726 c 0,65.821 43.15,112.117 102.36,112.117 59.52,0 102.04,-45.664 102.04,-111.804 l 0,-4.719 c 0,-65.828 -43.15,-112.117 -102.36,-112.117 -59.52,0 -102.04,45.664 -102.04,111.797" /><path
         id="path44"
         style="fill:#ffffff;fill-opacity:1;fill-rule:nonzero;stroke:none"
         d="m 1578.82,484.688 c 19.21,0 30.55,11.027 30.55,28.664 l 0,0.625 c 0,18.898 -11.98,28.347 -30.87,28.347 l -27.72,0 0,-57.636 28.04,0 z m -84.42,107.082 86.62,0 c 29.6,0 51.96,-7.872 66.14,-22.364 12.28,-12.285 19.21,-29.289 19.21,-51.652 l 0,-1.57 c 0,-32.754 -16.07,-53.223 -39.37,-64.883 l 45.35,-79.992 -63.93,0 -37.48,68.339 -20.16,0 0,-68.339 -56.38,0 0,220.461" /><path
         id="path46"
         style="fill:#ffffff;fill-opacity:1;fill-rule:nonzero;stroke:none"
         d="m 1725.25,591.77 151.81,0 0,-49.766 -95.74,0 0,-36.211 86.29,0 0,-46.934 -86.29,0 0,-37.793 96.99,0 0,-49.757 -153.06,0 0,220.461" /><path
         id="path48"
         style="fill:#ffffff;fill-opacity:1;fill-rule:nonzero;stroke:none"
         d="m 2053.73,456.34 -20.47,64.57 -20.48,-64.57 40.95,0 z m -48.51,136.687 57.33,0 77.79,-221.718 -59.53,0 -12.91,39.679 -69.29,0 -12.59,-39.679 -58.27,0 77.47,221.718" /><path
         id="path50"
         style="fill:#ffffff;fill-opacity:1;fill-rule:nonzero;stroke:none"
         d="m 0,678.809 466.348,0 c 213.355,0 360.746,-147.395 360.746,-338.43 l 0,-1.945 C 827.094,147.402 679.703,0 466.348,0 L 0,0 0,678.809" /><path
         id="path52"
         style="fill:#ed1441;fill-opacity:1;fill-rule:nonzero;stroke:none"
         d="m 271.328,289.941 35.504,54.364 35.477,-54.364 -19.743,0 0,-84.48 c 0,-32.922 25.09,-59.707 55.93,-59.707 30.856,0 55.942,26.785 55.942,59.707 l 0,118.66 33.328,0 0,-118.672 c 0,-49.187 -40.032,-89.179 -89.27,-89.179 -49.211,0 -89.254,39.992 -89.254,89.179 l 0,84.492 -17.914,0" /><path
         id="path54"
         style="fill:#ed1441;fill-opacity:1;fill-rule:nonzero;stroke:none"
         d="m 451.215,345.305 -35.485,54.371 18.708,0 0,73.711 c 0,32.898 -25.086,59.672 -55.93,59.672 -30.852,0 -55.942,-26.774 -55.942,-59.672 l 0,-106.985 -33.324,0 0,106.985 c 0,49.168 40.039,89.16 89.266,89.16 49.226,0 89.258,-39.992 89.258,-89.16 l 0,-73.711 18.933,0 -35.484,-54.371" /></g></g></svg>